<?xml version="1.0" encoding="UTF-8" standalone="no"?>
<svg
   height="40.601562"
   width="40.601562"
   version="1.1"
   id="svg826"
   sodipodi:docname="favicon.svg"
   inkscape:version="1.2-dev (9ee32be, 2021-06-19)"
   xmlns:inkscape="http://www.inkscape.org/namespaces/inkscape"
   xmlns:sodipodi="http://sodipodi.sourceforge.net/DTD/sodipodi-0.dtd"
   xmlns="http://www.w3.org/2000/svg"
   xmlns:svg="http://www.w3.org/2000/svg">
  <defs
     id="defs830" />
  <sodipodi:namedview
     id="namedview828"
     pagecolor="#505050"
     bordercolor="#eeeeee"
     borderopacity="1"
     inkscape:pageshadow="0"
     inkscape:pageopacity="0"
     inkscape:pagecheckerboard="0"
     showgrid="false"
     inkscape:zoom="13.041667"
     inkscape:cx="15.757188"
     inkscape:cy="19.70607"
     inkscape:window-width="1512"
     inkscape:window-height="848"
     inkscape:window-x="0"
     inkscape:window-y="38"
     inkscape:window-maximized="0"
     inkscape:current-layer="layer1" />
  <g
     inkscape:groupmode="layer"
     id="layer3"
     inkscape:label="Background"
     style="display:inline"
     transform="translate(-3.6992188,-3.6992188)">
    <path
       id="path824"
       style="fill:#282a36;fill-opacity:1"
       d="m 7.0996094,3.6992188 c -0.9,0 -1.6916667,0.3333333 -2.375,1 C 4.041276,5.3658854 3.6992187,6.166276 3.6992188,7.0996094 V 40.900391 c -1e-7,0.9 0.3420572,1.691666 1.0253906,2.375 0.6833333,0.683333 1.475,1.02539 2.375,1.02539 H 40.900391 c 0.933333,0 1.733724,-0.342057 2.40039,-1.02539 0.666667,-0.683334 1,-1.475 1,-2.375 V 7.0996094 c 0,-0.9333334 -0.333333,-1.733724 -1,-2.4003906 -0.666666,-0.6666667 -1.467057,-1 -2.40039,-1 z" />
  </g>
  <g
     inkscape:groupmode="layer"
     id="layer1"
     inkscape:label="Flower"
     style="display:inline"
     transform="translate(-3.6992188,-3.6992188)">
    <path
       id="path3604"
       style="fill:#bd93f9;fill-opacity:1"
       d="m 24,10.75 c -0.9,0 -1.625781,0.267448 -2.175781,0.800781 C 21.274219,12.084115 21,12.799219 21,13.699219 v 0.40039 c -0.233333,-0.233333 -0.516276,-0.382552 -0.849609,-0.449218 -0.333334,-0.06667 -0.651172,-0.09961 -0.951172,-0.09961 -0.9,0 -1.623828,0.274219 -2.173828,0.824219 -0.55,0.55 -0.826172,1.275781 -0.826172,2.175781 0,0.666667 0.142448,1.215104 0.425781,1.648438 0.283333,0.433333 0.691276,0.817057 1.224609,1.15039 -0.533333,0.233334 -0.941276,0.59961 -1.224609,1.09961 -0.283333,0.5 -0.425781,1.083333 -0.425781,1.75 0,0.9 0.276172,1.617057 0.826172,2.15039 0.55,0.533334 1.273828,0.800782 2.173828,0.800782 0.3,0 0.626562,-0.03294 0.976562,-0.09961 C 20.525781,24.984115 20.8,24.850391 21,24.650391 V 25 c 0,0.9 0.274219,1.625781 0.824219,2.175781 C 22.374219,27.725781 23.1,28 24,28 24.9,28 25.625781,27.725781 26.175781,27.175781 26.725781,26.625781 27,25.9 27,25 v -0.400391 c 0.233333,0.233334 0.516276,0.384506 0.849609,0.451172 0.333334,0.06667 0.651172,0.09961 0.951172,0.09961 0.9,0 1.623828,-0.267448 2.173828,-0.800782 0.55,-0.533333 0.826172,-1.25039 0.826172,-2.15039 0,-0.666667 -0.151172,-1.215104 -0.451172,-1.648438 -0.3,-0.433333 -0.699218,-0.834505 -1.199218,-1.201172 0.5,-0.2 0.899218,-0.548828 1.199218,-1.048828 0.3,-0.5 0.451172,-1.083333 0.451172,-1.75 0,-0.9 -0.276172,-1.625781 -0.826172,-2.175781 -0.55,-0.55 -1.273828,-0.824219 -2.173828,-0.824219 -0.3,0 -0.617838,0.03294 -0.951172,0.09961 C 27.516276,13.717057 27.233333,13.866276 27,14.099609 v -0.40039 c 0,-0.9 -0.274219,-1.615104 -0.824219,-2.148438 C 25.625781,11.017448 24.9,10.75 24,10.75 Z m 0,4.75 c 1.1,0 2.025391,0.366276 2.775391,1.099609 0.75,0.733334 1.125,1.65 1.125,2.75 0,1.1 -0.375,2.025391 -1.125,2.775391 C 26.025391,22.875 25.1,23.25 24,23.25 c -1.1,0 -2.025391,-0.375 -2.775391,-1.125 -0.75,-0.75 -1.125,-1.675391 -1.125,-2.775391 0,-1.1 0.375,-2.016666 1.125,-2.75 C 21.974609,15.866276 22.9,15.5 24,15.5 Z" />
  </g>
  <g
     inkscape:groupmode="layer"
     id="layer2"
     inkscape:label="Leaf"
     style="display:inline"
     transform="translate(-3.6992188,-3.6992188)">
    <path
       style="fill:#4bff79;fill-opacity:1"
       d="m 24,38.900391 c 2.833333,0 5.324609,-0.934115 7.474609,-2.800782 2.15,-1.866666 3.47461,-4.167057 3.97461,-6.90039 0.1,-0.533334 -0.03177,-0.991667 -0.398438,-1.375 -0.366666,-0.383334 -0.833724,-0.508334 -1.40039,-0.375 -2.733334,0.5 -5.025,1.826562 -6.875,3.976562 -1.85,2.15 -2.775391,4.641276 -2.775391,7.47461 z"
       id="path4024" />
    <path
       style="fill:#4bff79;fill-opacity:1"
       d="m 13.943359,27.398438 c -0.3875,-0.0031 -0.71914,0.138281 -0.99414,0.425781 -0.366667,0.383333 -0.498438,0.841666 -0.398438,1.375 0.5,2.733333 1.82461,5.033724 3.97461,6.90039 2.15,1.866667 4.641276,2.800782 7.474609,2.800782 0,-2.833334 -0.925391,-5.32461 -2.775391,-7.47461 -1.85,-2.15 -4.141666,-3.476562 -6.875,-3.976562 -0.141666,-0.03333 -0.277083,-0.04974 -0.40625,-0.05078 z"
       id="path4022" />
  </g>
</svg>
