<?xml version="1.0" standalone="no"?>
<!DOCTYPE svg PUBLIC "-//W3C//DTD SVG 20010904//EN"
 "http://www.w3.org/TR/2001/REC-SVG-20010904/DTD/svg10.dtd">
<svg version="1.0" xmlns="http://www.w3.org/2000/svg"
 width="700.000000pt" height="700.000000pt" viewBox="0 0 700.000000 700.000000"
 preserveAspectRatio="xMidYMid meet">
<metadata>
Created by potrace 1.14, written by Peter Selinger 2001-2017
</metadata>
<g transform="translate(0.000000,700.000000) scale(0.100000,-0.100000)"
fill="#000000" stroke="none">
<path d="M441 6980 c-207 -55 -393 -251 -430 -454 -8 -42 -11 -953 -11 -3030
0 -3296 -5 -3030 68 -3170 49 -95 163 -209 258 -259 141 -73 -130 -67 3206
-65 l3003 3 62 23 c170 64 319 215 376 381 l22 66 3 2990 c2 2195 0 3008 -9
3058 -35 213 -232 417 -446 462 -58 13 -499 15 -3048 14 -2915 0 -2982 -1
-3054 -19z m3214 -1220 c222 -57 355 -233 355 -472 0 -43 2 -78 5 -78 2 0 25
13 51 30 62 39 137 54 269 54 87 -1 123 -5 175 -23 166 -57 280 -184 316 -350
30 -143 7 -315 -56 -425 -34 -61 -122 -148 -174 -173 -20 -9 -36 -19 -35 -22
0 -3 25 -25 55 -49 62 -50 145 -146 174 -202 48 -94 63 -258 35 -378 -32 -136
-117 -247 -236 -306 -95 -48 -161 -59 -304 -54 -125 5 -177 19 -245 68 l-30
21 0 -83 c0 -245 -143 -435 -368 -488 -69 -16 -215 -16 -284 0 -223 53 -368
243 -368 482 0 43 -2 78 -5 78 -2 0 -21 -11 -41 -25 -54 -37 -97 -47 -229 -52
-144 -6 -208 5 -304 53 -171 85 -259 256 -248 479 10 211 90 348 261 450 14 8
7 17 -48 57 -145 104 -216 245 -216 428 0 243 118 418 330 491 52 18 88 22
175 23 132 0 207 -15 269 -54 26 -17 49 -30 51 -30 3 0 5 35 5 78 0 186 83
338 231 425 109 64 290 84 434 47z m-1734 -2874 c398 -91 720 -274 1014 -577
242 -250 397 -514 490 -835 30 -102 65 -307 65 -376 0 -27 5 -48 10 -48 6 0
10 20 10 45 0 124 51 358 116 532 173 463 555 881 1008 1102 214 105 505 188
627 179 102 -7 188 -88 211 -199 10 -49 8 -68 -16 -178 -87 -394 -267 -722
-553 -1007 -314 -314 -681 -504 -1103 -570 -146 -23 -448 -23 -596 0 -422 65
-783 250 -1101 565 -207 205 -355 423 -458 681 -47 116 -108 333 -121 427 -13
103 46 216 138 262 57 28 126 27 259 -3z"/>
<path d="M3405 4964 c-11 -2 -45 -9 -75 -15 -30 -6 -93 -29 -140 -51 -69 -33
-101 -57 -171 -127 -137 -137 -192 -273 -192 -471 0 -201 55 -334 197 -476
143 -142 270 -194 476 -194 205 0 332 52 476 195 142 140 197 273 197 475 0
189 -55 330 -178 459 -130 135 -274 199 -465 206 -58 2 -114 2 -125 -1z"/>
</g>
</svg>
